<?xml version="1.0" standalone="no"?><!DOCTYPE svg PUBLIC "-//W3C//DTD SVG 1.1//EN" "http://www.w3.org/Graphics/SVG/1.1/DTD/svg11.dtd"><svg t="1604936543020" class="icon" viewBox="0 0 1024 1024" version="1.1" xmlns="http://www.w3.org/2000/svg" p-id="3059" xmlns:xlink="http://www.w3.org/1999/xlink" width="200" height="200"><defs><style type="text/css"></style></defs><path d="M896 108.032h-52.224c-16.896 0-30.72 13.824-30.72 30.72s13.824 30.72 30.72 30.72H896c16.896 0 30.72 13.824 30.72 30.72v651.776c0 16.896-13.824 30.72-30.72 30.72H129.536c-16.896 0-30.72-13.824-30.72-30.72V200.192c0-16.896 13.824-30.72 30.72-30.72h79.36c16.896 0 30.72-13.824 30.72-30.72s-13.824-30.72-30.72-30.72h-79.36c-50.688 0-92.16 41.472-92.16 92.16v651.776c0 50.688 41.472 92.16 92.16 92.16H896c50.688 0 92.16-41.472 92.16-92.16V200.192c0-50.688-41.472-92.16-92.16-92.16z" fill="#515151" p-id="3060"></path><path d="M408.576 169.472H640c16.896 0 30.72-13.824 30.72-30.72s-13.824-30.72-30.72-30.72H408.576c-16.896 0-30.72 13.824-30.72 30.72s13.824 30.72 30.72 30.72z m-99.84 55.808c16.896 0 30.72-13.824 30.72-30.72V55.296c0-16.896-13.824-30.72-30.72-30.72s-30.72 13.824-30.72 30.72V194.56c0 16.896 13.824 30.72 30.72 30.72z m432.64 0c16.896 0 30.72-13.824 30.72-30.72V63.488c0-16.896-13.824-30.72-30.72-30.72s-30.72 13.824-30.72 30.72V194.56c0 16.896 13.824 30.72 30.72 30.72z m-13.312 159.744L457.728 655.36 333.824 531.456c-11.776-11.776-31.232-11.776-43.52 0-11.776 11.776-11.776 31.232 0 43.52l145.408 145.408c6.144 6.144 13.824 9.216 21.504 9.216 3.072 0 6.144-0.512 8.704-1.536 4.608-1.536 9.216-3.584 12.8-7.68l291.84-291.84c11.776-11.776 11.776-31.232 0-43.52-11.264-12.288-30.72-12.288-42.496 0z" fill="#515151" p-id="3061"></path></svg>